<svg width="800" height="400" xmlns="http://www.w3.org/2000/svg">
  <rect width="800" height="400" fill="#1a1a2e"/>
  <rect x="50" y="50" width="700" height="300" rx="15" fill="#16213e"/>
  <rect x="100" y="80" width="600" height="40" rx="5" fill="#0f3460"/>
  <rect x="100" y="140" width="280" height="160" rx="5" fill="#0f3460"/>
  <rect x="400" y="140" width="300" height="160" rx="5" fill="#0f3460"/>
  <circle cx="140" cy="100" r="10" fill="#e94560"/>
  <rect x="160" y="95" width="60" height="10" rx="2" fill="#ffffff" opacity="0.5"/>
  <rect x="240" y="95" width="60" height="10" rx="2" fill="#ffffff" opacity="0.5"/>
  <rect x="320" y="95" width="60" height="10" rx="2" fill="#ffffff" opacity="0.5"/>
  <rect x="400" y="95" width="60" height="10" rx="2" fill="#ffffff" opacity="0.5"/>
  <rect x="480" y="95" width="60" height="10" rx="2" fill="#ffffff" opacity="0.5"/>
  <rect x="560" y="95" width="60" height="10" rx="2" fill="#ffffff" opacity="0.5"/>
  <circle cx="240" cy="220" r="50" fill="#e94560" opacity="0.7"/>
  <rect x="450" y="180" width="200" height="10" rx="2" fill="#ffffff" opacity="0.5"/>
  <rect x="450" y="200" width="200" height="10" rx="2" fill="#ffffff" opacity="0.5"/>
  <rect x="450" y="220" width="200" height="10" rx="2" fill="#ffffff" opacity="0.5"/>
  <rect x="450" y="240" width="120" height="10" rx="2" fill="#ffffff" opacity="0.5"/>
  <text x="400" y="330" font-family="Arial" font-size="24" fill="#ffffff" text-anchor="middle">Modern Portfolio</text>
</svg>
