<svg width="800" height="400" xmlns="http://www.w3.org/2000/svg">
  <rect width="800" height="400" fill="#1a1a2e"/>
  <rect x="50" y="50" width="700" height="300" rx="15" fill="#16213e"/>
  <rect x="100" y="80" width="600" height="40" rx="5" fill="#0f3460"/>
  <rect x="100" y="140" width="180" height="160" rx="5" fill="#0f3460"/>
  <rect x="300" y="140" width="180" height="160" rx="5" fill="#0f3460"/>
  <rect x="500" y="140" width="200" height="160" rx="5" fill="#0f3460"/>
  <circle cx="190" cy="220" r="30" fill="#e94560"/>
  <circle cx="390" cy="220" r="30" fill="#e94560"/>
  <rect x="550" y="160" width="100" height="10" rx="2" fill="#ffffff" opacity="0.5"/>
  <rect x="550" y="180" width="100" height="10" rx="2" fill="#ffffff" opacity="0.5"/>
  <rect x="550" y="200" width="100" height="10" rx="2" fill="#ffffff" opacity="0.5"/>
  <rect x="550" y="220" width="100" height="10" rx="2" fill="#ffffff" opacity="0.5"/>
  <rect x="550" y="240" width="100" height="10" rx="2" fill="#ffffff" opacity="0.5"/>
  <rect x="550" y="260" width="100" height="10" rx="2" fill="#ffffff" opacity="0.5"/>
  <text x="400" y="330" font-family="Arial" font-size="24" fill="#ffffff" text-anchor="middle">Restaurant Ordering System</text>
</svg>
